<?xml version="1.0" standalone="no"?>
<!DOCTYPE svg PUBLIC "-//W3C//DTD SVG 20010904//EN"
 "http://www.w3.org/TR/2001/REC-SVG-20010904/DTD/svg10.dtd">
<svg version="1.0" xmlns="http://www.w3.org/2000/svg"
 width="250.000000pt" height="305.000000pt" viewBox="0 0 250.000000 305.000000"
 preserveAspectRatio="xMidYMid meet">
<metadata>
Created by potrace 1.11, written by Peter Selinger 2001-2013
</metadata>
<g transform="translate(0.000000,305.000000) scale(0.100000,-0.100000)"
fill="#000000" stroke="none">
<path d="M1235 2929 c-11 -6 -40 -35 -64 -65 -35 -44 -49 -54 -73 -54 -21 0
-31 -6 -35 -19 -4 -16 -8 -17 -29 -7 -21 10 -24 17 -24 74 l0 62 -202 -2 -203
-3 -3 -59 c-2 -35 -9 -64 -17 -70 -9 -8 -15 -42 -18 -106 -2 -52 -14 -169 -26
-260 -17 -121 -21 -184 -16 -235 6 -55 11 -1178 7 -1530 -1 -86 19 -133 68
-157 32 -17 88 -18 715 -18 755 0 728 -2 767 66 27 46 34 144 14 184 -14 30
-16 104 -16 706 0 438 3 675 10 679 6 4 10 118 10 309 0 331 -2 347 -59 430
-61 88 -51 86 -442 85 -211 0 -352 -4 -364 -10z m732 -19 c18 -11 46 -38 63
-61 55 -76 60 -113 60 -428 0 -157 -4 -292 -8 -299 -7 -10 -168 -12 -773 -10
l-764 3 -9 38 c-10 40 -1 156 32 380 l16 117 207 0 206 0 79 88 c44 48 95 105
113 127 19 22 44 45 55 52 15 9 112 12 356 13 316 0 337 -1 367 -20z m-967
-65 l0 -55 -195 0 -195 0 0 55 0 55 195 0 195 0 0 -55z m54 -94 c18 -7 16 -11
-19 -49 l-37 -42 -204 0 -204 0 0 50 0 51 223 -2 c122 0 231 -4 241 -8z m1016
-1326 l0 -675 -760 0 -760 0 0 675 0 675 760 0 760 0 0 -675z m15 -778 c0 -88
0 -89 -33 -118 l-33 -29 -702 0 c-779 0 -734 -3 -763 66 -14 34 -19 155 -7
167 3 4 351 6 772 5 l766 -3 0 -88z"/>
<path d="M1323 2708 c-25 -28 -43 -62 -42 -80 0 -7 4 -4 9 7 7 16 9 12 9 -18
1 -26 9 -45 26 -62 l24 -25 229 0 c226 0 229 0 250 23 14 15 22 37 23 63 1 38
2 38 9 9 6 -25 8 -26 9 -7 2 33 -24 89 -47 101 -13 7 -105 11 -250 11 -224 0
-229 0 -249 -22z m497 -8 c14 -14 20 -33 20 -67 0 -90 -10 -93 -270 -93 -211
0 -211 0 -235 25 -32 31 -34 91 -4 129 l20 26 225 0 c211 0 225 -1 244 -20z"/>
</g>
</svg>
